# xmcd CD database file
#
# Track frame offsets:
#	150
#	21203
#	47680
#	69481
#	98063
#	120876
#	163332
#
# Disc length: 2636 seconds
#
# Revision: 2
# Processed by: cddbd v1.5.2PL0 Copyright (c) Steve Scherf et al.
# Submitted via: CDex 1.70beta3
#
DISCID=520a4a07
DTITLE=school food punishment - school food is good food
DYEAR=2007
DGENRE=Rock
TTITLE0=close, down, back to
TTITLE1=pool
TTITLE2=set low, fine
TTITLE3=snap
TTITLE4=浮かび上がる
TTITLE5=遠く箱の中
TTITLE6=(エンハンスド)「pool」
EXTD=YEAR: 2007
EXTT0=
EXTT1=
EXTT2=
EXTT3=
EXTT4=
EXTT5=
EXTT6=
PLAYORDER=
